<?xml version="1.0" encoding="utf-8"?>
<!-- Generated by IcoMoon.io -->
<!DOCTYPE svg PUBLIC "-//W3C//DTD SVG 1.1//EN" "http://www.w3.org/Graphics/SVG/1.1/DTD/svg11.dtd">
<svg version="1.1" xmlns="http://www.w3.org/2000/svg" xmlns:xlink="http://www.w3.org/1999/xlink" width="250" height="125" viewBox="0 0 250 125">
<g id="icomoon-ignore">
</g>
<path d="M132 28c3.4 0.8 6 0.9 8.9 1 1.9 0.1 3.9 0.1 6.3 0.4 7.1 0.9 13.2 1.9 19.5 2.9 0.8 0.1 3.6 1.9 4.1 2.5s1.8 3 2 4.7c0.9 10.7-1.1 15.2-5.9 22.8-1.6 2.6-3.3 6-4.9 9.2-0.8 1.7-1.7 3.5-2.6 5.1-4.4 8.5-3.3 9.9 2.6 17.6l1.1 1.4c5.9 7.6 8.5 10.2 23.9 13 1.4 0.3 2.8 0.5 4.1 0.8 4.9 1 9.4 1.9 14.6 2.1 2.8 0.1 5.5 0.4 8.2 0.6 2.6 0.2 5.4 0.5 8.1 0.6 1.1 0 2.5 0.2 4 0.3 2.1 0.2 5.3 0.5 6.1 0.3 0.2-1.1-0.2-7.7-0.5-10.6-0.5 0-1.4-0.1-2.4-0.2-4.1-0.3-11.8-0.9-15.8-0.9-6.2 0-17.7-2.2-20-2.7-3.9-0.8-6.6-1.5-9-5.1l-0.1-0.1c-1.8-6.2-2.7-13.4 3.9-23.6 0.9-1.4 2.5-4.5 3.9-7.2 0.9-1.6 1.6-3.1 2.1-4l0.6-1c2.6-4.6 5.6-9.8 3.7-14.4-2.5-6.3-10.2-14.5-17.5-18.7-1.8-1-23.4-4.8-26.6-5.3-1.3-0.2-6.8-0.6-12.1-0.9-4.2-0.3-8.3-0.5-10.3-0.7v10.1z" fill="#000000"></path>
<path d="M131 28.8l0.4 0.1c3.6 0.9 6.5 1 9.4 1.1 1.9 0.1 3.9 0.1 6.2 0.4 7.1 0.9 12.9 1.8 19.5 2.9 0.5 0.1 3.1 1.7 3.5 2.1 0.5 0.6 1.6 2.8 1.7 4.1 0.9 10.5-1 14.6-5.8 22.2-1.7 2.6-3.3 6-4.9 9.3-0.8 1.7-1.7 3.5-2.5 5.1-4.7 9-3.3 10.9 2.7 18.6l1.1 1.4c6.1 7.8 8.7 10.5 24.5 13.4 1.4 0.3 2.8 0.5 4.1 0.8 4.9 1 9.5 1.9 14.7 2.1 2.8 0.1 5.5 0.4 8.1 0.6 2.6 0.3 5.4 0.5 8.2 0.6 1.1 0 2.5 0.2 4 0.3 2.5 0.2 4.2 0.4 5.3 0.4 0.8 0 1.3-0.1 1.5-0.2 1-0.7-0.3-11.9-0.3-12l-0.1-0.4h-0.4c-0.4 0-1.4-0.1-2.8-0.2-4.1-0.3-11.8-0.9-15.9-0.9-6.1 0-17.6-2.2-19.8-2.7-3.7-0.7-6.1-1.4-8.3-4.6-1.8-6-2.5-12.9 3.8-22.8 0.9-1.4 2.5-4.5 4-7.3 0.8-1.6 1.6-3.1 2.1-3.9l0.6-1c2.7-4.8 5.8-10.2 3.7-15.3-2.6-6.5-10.5-14.9-17.9-19.2-2.1-1.3-25.4-5.2-27-5.4-1.4-0.2-6.9-0.6-12.2-0.9-5.1-0.3-10.3-0.8-11.2-0.9l-0.1 0.4v0.6c0 0 0 0.1 0 0.1l0.1 11.1z" fill="#000000"></path>
<path d="M115.3 28c-3.4 0.8-6 0.9-8.9 1-1.9 0.1-3.9 0.1-6.3 0.4-7.1 0.9-13.1 1.9-19.5 2.9-0.8 0.1-3.6 1.9-4.1 2.5s-1.8 3-2 4.7c-0.9 10.7 1.1 15.2 5.9 22.8 1.6 2.6 3.3 6 4.9 9.2 0.8 1.7 1.7 3.5 2.6 5.1 4.4 8.5 3.3 9.9-2.6 17.6l-1.1 1.4c-5.9 7.6-8.5 10.2-23.9 13-1.4 0.3-2.8 0.5-4.1 0.8-4.9 1-9.4 1.9-14.6 2.1-2.8 0.1-5.5 0.4-8.2 0.6-2.6 0.2-5.4 0.5-8.1 0.6-1.1 0-2.5 0.2-4 0.3-2.1 0.2-5.3 0.5-6.1 0.3-0.2-1.1 0.2-7.7 0.5-10.6 0.5 0 1.4-0.1 2.4-0.2 4.1-0.3 11.8-0.9 15.8-0.9 6.2 0 17.7-2.2 20-2.7 3.9-0.8 6.6-1.5 9-5.1l0.1-0.1c1.8-6.2 2.7-13.4-3.9-23.6-0.9-1.4-2.5-4.5-3.9-7.2-0.9-1.6-1.6-3.1-2.1-4l-0.6-1c-2.6-4.6-5.6-9.8-3.7-14.4 2.5-6.3 10.2-14.5 17.4-18.7 1.8-1 23.4-4.8 26.6-5.3 1.3-0.2 6.8-0.6 12.1-0.9 4.2-0.3 8.3-0.5 10.3-0.7l0.1 10.1z" fill="#000000"></path>
<path d="M116.3 28.8l-0.4 0.1c-3.6 0.9-6.5 1-9.4 1.1-1.9 0.1-3.9 0.1-6.2 0.4-7.1 0.9-12.9 1.8-19.5 2.9-0.5 0.1-3.1 1.7-3.5 2.1-0.5 0.6-1.6 2.8-1.7 4.1-0.9 10.5 1 14.6 5.8 22.2 1.7 2.6 3.3 6 4.9 9.3 0.8 1.7 1.7 3.5 2.5 5.1 4.7 9 3.3 10.9-2.7 18.6l-1.1 1.4c-6.1 7.8-8.7 10.5-24.5 13.4-1.4 0.3-2.8 0.5-4.1 0.8-4.9 1-9.5 1.9-14.7 2.1-2.8 0.1-5.5 0.4-8.1 0.6-2.6 0.3-5.4 0.5-8.2 0.6-1.1 0-2.5 0.2-4 0.3-2.5 0.2-4.2 0.4-5.3 0.4-0.8 0-1.3-0.1-1.5-0.2-1-0.7 0.3-11.9 0.3-12l0.1-0.4h0.4c0.4 0 1.4-0.1 2.8-0.2 4.1-0.3 11.8-0.9 15.9-0.9 6.1 0 17.6-2.2 19.8-2.7 3.7-0.7 6.1-1.4 8.3-4.6 1.8-6 2.5-12.9-3.8-22.8-0.9-1.4-2.5-4.5-4-7.3-0.8-1.6-1.6-3.1-2.1-3.9l-0.6-1c-2.7-4.8-5.8-10.2-3.7-15.3 2.6-6.5 10.5-14.9 17.9-19.2 2.1-1.3 25.4-5.2 27-5.4 1.4-0.2 6.9-0.6 12.2-0.9 5.1-0.3 10.3-0.8 11.2-0.9l0.1 0.4v0.6c0 0 0 0.1 0 0.1l-0.1 11.1z" fill="#000000"></path>
</svg>
